<?xml version="1.0" encoding="UTF-8" standalone="no"?>
<!DOCTYPE svg PUBLIC "-//W3C//DTD SVG 1.1//EN" "http://www.w3.org/Graphics/SVG/1.1/DTD/svg11.dtd">
<svg width="100%" height="100%" viewBox="0 0 1024 1024" version="1.1" xmlns="http://www.w3.org/2000/svg" xmlns:xlink="http://www.w3.org/1999/xlink" xml:space="preserve" xmlns:serif="http://www.serif.com/" style="fill-rule:evenodd;clip-rule:evenodd;stroke-linejoin:round;stroke-miterlimit:2;">
    <g>
        <path d="M480.5,0L481.5,0C481.961,0.068 481.993,0.953 482.454,1.021C482.572,1.038 504.316,1.027 504.443,1.008C504.925,0.938 505.018,0.07 505.5,0L518.5,0C518.982,0.07 519.075,0.938 519.557,1.008C519.684,1.027 541.428,1.038 541.546,1.021C542.007,0.953 542.039,0.068 542.5,0L543.5,0C544.284,0.212 543.771,0.832 544.546,1.041C544.775,1.103 544.766,1.044 547.509,1.083C554.108,1.174 553.986,1.936 560.509,2.081C572.997,2.359 572.83,3.759 576.546,4.036C584.555,4.635 584.497,4.657 592.435,5.969C594.922,6.38 615.267,9.741 623.401,11.768C650.295,18.469 650.204,18.681 652.556,19.191C652.606,19.202 694.143,30.058 739.359,52.776C767.331,66.83 770.575,69.864 772.737,71.049C779.477,74.743 779.034,75.355 785.743,79.055C802.283,88.174 839.197,116.893 844.652,122.343C850.082,127.767 851.165,126.589 881.208,156.791C911.374,187.118 937.395,225.943 939.924,230.264C940.359,231.007 943.952,237.145 945.706,239.341C949.188,243.7 957.514,259.104 957.705,259.345C961.534,264.162 998.926,332.817 1012.922,404.441C1024.205,462.183 1020.816,462.681 1022.244,467.583C1023.436,471.678 1022.734,478.051 1022.958,479.454C1023.036,479.94 1023.921,480.014 1023.999,480.5L1023.999,481.5C1023.931,481.961 1023.047,481.994 1022.979,482.455C1022.961,482.577 1022.973,505.257 1022.999,505.435C1023.069,505.917 1023.929,506.018 1023.999,506.5L1023.999,517.5C1023.929,517.982 1023.069,518.083 1022.999,518.565C1022.973,518.743 1022.961,541.423 1022.979,541.545C1023.047,542.006 1023.931,542.039 1023.999,542.5L1023.999,543.5C1023.871,543.975 1023.086,544.071 1022.958,544.546C1022.956,544.553 1022.854,553.942 1022.774,554.533C1021.163,566.457 1021.846,566.517 1021.559,567.52C1020.206,572.252 1021.14,572.561 1020.569,574.523C1019.817,577.108 1020.081,577.116 1019.787,581.538C1019.757,581.983 1018.988,584.18 1018.961,584.545C1018.693,588.115 1017.692,601.462 1010.909,628.558C1005.59,649.808 1005.297,649.701 1004.918,651.564C1002.39,664.012 987.996,704.491 979.223,722.361C970.23,740.681 970.776,740.884 960.959,758.741C933.325,809.004 905.444,843.257 871.214,877.212C863.954,884.414 822.811,925.227 769.712,954.911C696.973,995.574 684.713,992.321 668.692,999.944C658.215,1004.929 595.351,1018.949 573.539,1020.79C558.811,1022.034 558.81,1021.79 557.54,1021.974C545.625,1023.691 545.575,1022.794 544.546,1022.958C544.06,1023.036 543.986,1023.921 543.5,1023.999L542.5,1023.999C542.039,1023.931 542.006,1023.047 541.545,1022.979C541.423,1022.961 518.743,1022.973 518.565,1022.999C518.083,1023.069 517.982,1023.929 517.5,1023.999L506.5,1023.999C506.018,1023.929 505.917,1023.069 505.435,1022.999C505.257,1022.973 482.577,1022.961 482.455,1022.979C481.994,1023.047 481.961,1023.931 481.5,1023.999L480.5,1023.999C480.014,1023.921 479.94,1023.036 479.454,1022.958C478.051,1022.734 471.678,1023.436 467.583,1022.244C467.338,1022.172 452.787,1021.503 448.586,1020.245C446.351,1019.576 435.595,1018.859 434.461,1018.784C433.976,1018.752 434.062,1018.311 428.46,1017.779C427.569,1017.695 427.779,1016.773 417.459,1015.783C415.878,1015.632 415.1,1014.769 407.451,1013.805C398.945,1012.733 341.438,997.091 322.298,987.949C315.135,984.527 314.466,986.062 284.283,970.946C273.851,965.721 274.008,965.583 263.643,960.224C258.716,957.677 237.368,944.901 233.652,942.253C232.777,941.629 217.324,931.69 211.329,926.709C207.994,923.939 207.665,924.513 204.332,921.7C189.127,908.871 186.836,911.488 141.793,866.209C97.282,821.463 53.598,750.764 34.757,698.394C23.715,667.703 22.673,668.097 14.768,636.401C12.208,626.138 7.983,605.623 7.128,599.525C6.066,591.957 5.922,592.068 5.039,584.545C4.815,582.643 2.3,570.356 2.081,560.509C1.935,553.984 1.174,554.106 1.083,547.509C1.044,544.766 1.103,544.775 1.041,544.546C0.83,543.762 0.209,544.275 0,543.5L0,542.5C0.068,542.039 0.953,542.006 1.021,541.545C1.038,541.429 1.027,519.684 1.008,519.557C0.938,519.075 0.07,518.982 0,518.5L-0,505.5C0.07,505.018 0.938,504.925 1.008,504.443C1.027,504.316 1.038,482.571 1.021,482.455C0.953,481.994 0.068,481.961 0,481.5L0,480.5C0.078,480.014 0.964,479.94 1.041,479.454C1.266,478.049 0.562,471.681 1.756,467.583C1.827,467.338 2.496,452.792 3.755,448.586C4.423,446.354 5.14,435.595 5.216,434.461C5.248,433.975 5.688,434.061 6.22,428.46C6.305,427.569 7.225,427.787 8.216,417.459C8.368,415.876 9.23,415.106 10.195,407.451C10.509,404.958 21.186,361.341 24.055,355.308C26.488,350.194 43.004,286.953 94.744,214.653C183.13,91.148 290.809,51.074 307.641,41.785C315.491,37.453 347.916,26.599 351.465,25.411C412.467,4.993 447.875,4.902 456.48,2.441C457.483,2.154 457.543,2.837 469.467,1.225C470.057,1.145 479.447,1.043 479.454,1.041C479.929,0.913 480.025,0.128 480.5,0L774.997,729.965C793.5,710.193 818.868,682.362 847.692,621.587C849.927,616.873 856.501,603.011 870.585,560.527C871.615,557.418 871.697,548.348 872.282,546.441C872.711,545.045 875.59,535.669 875.752,528.511C876.605,490.75 876.797,490.774 876.717,487.493C876.293,470.149 867.482,428.854 866.181,424.595C852.54,379.947 840.932,360.88 825.077,334.76C809.377,308.893 773.264,268.77 756.759,252.243C755.559,251.042 737.174,232.632 736.088,247.46C734.577,268.098 752.858,293.587 762.562,339.486C770.57,377.363 763.913,412.941 761.325,420.442C750.947,450.521 727.894,498.283 650.401,537.309C606.837,559.248 548.184,572.344 524.546,575.767C455.296,585.796 415.609,581.401 394.486,580.876C290.189,578.288 171.282,537.516 165.498,538.49C160.814,539.279 166.601,550.969 166.764,551.399C266.53,813.485 265.752,813.74 274.613,836.455C304.016,911.826 309.875,930.046 312.728,934.341C315.525,938.552 316.954,936.013 385.536,923.682C401.022,920.898 455.897,906.489 458.551,905.65C477.284,899.73 661.54,852.332 774.997,729.965L480.5,0L223.01,122.025C161.221,187.846 149.587,252.525 144.432,308.495C142.044,334.416 142.597,389.313 147.966,423.432C151.398,445.241 150.372,445.331 159.992,489.402C164.575,510.395 163.125,515.193 173.489,517.546C195.446,522.532 243.156,528.738 429.543,563.287C451.989,567.447 467.186,571.159 463.133,559.629C449.086,519.677 423.463,465.983 406.208,389.565C364.306,203.982 434.808,166.463 477.469,150.425C561.754,118.738 684.876,151.829 702.537,147.642C709.062,146.096 723.768,144.931 711.197,131.816C708.907,129.427 629.271,87.152 538.602,66.023C484.712,53.465 472.321,53.452 423.514,50.267C420.719,50.085 420.761,50.654 388.51,50.907C380.229,50.972 332.885,59.36 312.658,66.927C292.132,74.606 258.801,86.448 223.01,122.025L480.5,0L473.014,396.95C498.284,424.827 519.343,438.5 553.444,451.639C612.027,474.211 690.338,455.996 707.504,395.501C708.758,391.08 713.099,367.544 711.735,357.476C701.264,280.243 617.876,220.365 544.479,215.837C499.608,213.069 458.681,235.221 444.378,270.45C443.659,272.222 424.255,303.688 448.926,361.323C456.166,378.238 470.711,394.393 473.014,396.95L480.5,0Z" style="fill:white;fill-opacity:1;"/>
    </g>
</svg>
