<?xml version="1.0" encoding="UTF-8" standalone="no"?>
<!DOCTYPE svg PUBLIC "-//W3C//DTD SVG 1.1//EN" "http://www.w3.org/Graphics/SVG/1.1/DTD/svg11.dtd">
<svg width="100%" height="100%" viewBox="0 0 556 556" version="1.1" xmlns="http://www.w3.org/2000/svg" xmlns:xlink="http://www.w3.org/1999/xlink" xml:space="preserve" xmlns:serif="http://www.serif.com/" style="fill-rule:evenodd;clip-rule:evenodd;stroke-linejoin:round;stroke-miterlimit:2;">
    <g transform="matrix(1,0,0,1,-1529.699951,-182.656006)">
        <path d="M1672.26,227.014C1713.21,203.229 1760.03,190.656 1807.66,190.656C1817.23,190.656 1826.84,191.162 1836.33,192.161C1760.84,249.614 1672.83,291.717 1580.65,314.467C1603.8,278.594 1635.3,248.482 1672.26,227.014ZM2047.05,335.79C2033,348.895 2021.57,367.186 2012.16,391.604C2008.15,401.996 2004.71,412.741 2001.39,423.132C1996.55,438.281 1991.54,453.946 1984.75,468.467C1968.01,504.222 1946.46,518.138 1931.33,523.516C1911.49,530.567 1890.46,528.018 1868.19,525.317C1849.94,523.104 1831.06,520.815 1812.71,524.244C1790.92,528.312 1771.89,540.02 1753.48,551.341C1738.28,560.691 1722.57,570.359 1705.64,575.404C1685,581.555 1662.58,580.867 1640.9,580.199C1636.4,580.061 1631.75,579.918 1627.19,579.838C1610.27,579.541 1588.66,580.128 1569.05,586.983C1568.96,586.798 1568.85,586.614 1568.76,586.429C1568.48,585.902 1568.2,585.375 1567.92,584.846C1567.38,583.809 1566.86,582.768 1566.33,581.725C1566.09,581.251 1565.85,580.779 1565.62,580.304C1565.06,579.181 1564.51,578.053 1563.97,576.923C1563.78,576.521 1563.58,576.12 1563.39,575.717C1562.81,574.476 1562.24,573.23 1561.67,571.982C1561.53,571.682 1561.39,571.384 1561.26,571.083C1560.62,569.663 1560,568.236 1559.38,566.805C1559.32,566.671 1559.26,566.537 1559.21,566.403C1557.17,561.617 1555.27,556.777 1553.51,551.886C1553.47,551.788 1553.44,551.689 1553.41,551.591C1552.87,550.099 1552.35,548.602 1551.84,547.101C1551.7,546.677 1551.56,546.251 1551.42,545.827C1551.03,544.651 1550.65,543.475 1550.27,542.293C1550.09,541.709 1549.91,541.122 1549.73,540.537C1549.41,539.512 1549.1,538.487 1548.79,537.458C1548.59,536.779 1548.4,536.098 1548.2,535.417C1547.93,534.477 1547.66,533.537 1547.4,532.594C1547.2,531.854 1547,531.111 1546.8,530.369C1546.57,529.478 1546.33,528.587 1546.1,527.694C1545.9,526.918 1545.71,526.14 1545.52,525.362C1545.31,524.494 1545.1,523.625 1544.89,522.755C1544.7,521.961 1544.52,521.165 1544.34,520.368C1544.23,519.881 1544.13,519.392 1544.02,518.903C1545.54,519.552 1547.05,520.201 1548.55,520.841C1563.04,527.056 1578.02,533.482 1593.89,536.679C1633.18,544.6 1673.2,532.259 1710.61,517.745C1714.91,516.074 1719.22,514.372 1723.53,512.666C1755.22,500.137 1787.99,487.181 1821.88,486.3C1830.51,486.075 1839.53,486.614 1848.25,487.137C1869.49,488.407 1891.47,489.723 1911.22,480.46C1945.04,464.596 1957.07,424.8 1961.24,402.49C1963.39,390.967 1964.68,379.151 1965.93,367.725C1967.96,349.062 1970.07,329.764 1976,311.881C1981.11,296.432 1990.12,282.179 2000.98,272.214C2001.12,272.35 2001.25,272.483 2001.38,272.618C2019.53,291.325 2034.97,312.732 2047.05,335.79ZM2052.379,346.559C2052.649,347.133 2052.919,347.706 2053.179,348.282C2053.81,349.648 2054.419,351.023 2055.02,352.398C2055.399,353.264 2055.79,354.128 2056.159,354.997C2056.649,356.156 2057.129,357.322 2057.6,358.487C2058.03,359.538 2058.47,360.589 2058.879,361.644C2059.31,362.731 2059.73,363.824 2060.139,364.916C2060.44,365.696 2060.73,366.478 2061.02,367.26C2055.149,375.713 2050.27,384.739 2046.49,394.121C2039.68,411.066 2036.31,429.173 2033.05,446.684C2031.7,453.959 2030.3,461.482 2028.68,468.772C2021.87,499.431 2011.47,519.944 1995.95,533.328C1976.3,550.27 1947.75,556.764 1906.09,553.762C1899.44,553.285 1892.62,552.638 1886.03,552.014C1860.1,549.559 1833.3,547.018 1807.56,553.629C1788.45,558.539 1770.99,568.263 1754.11,577.667C1735.08,588.271 1717.1,598.286 1696.76,602.185C1673.55,606.634 1648.89,602.444 1625.04,598.392C1609.44,595.74 1593.38,593.012 1577.65,592.676C1594.47,587.996 1612.54,587.582 1627.05,587.837C1631.56,587.917 1636.18,588.058 1640.65,588.195C1662.97,588.882 1686.04,589.589 1707.92,583.071C1725.86,577.725 1742.04,567.776 1757.67,558.156C1776.28,546.712 1793.85,535.903 1814.17,532.108C1831.32,528.905 1849.58,531.118 1867.23,533.259C1889.44,535.952 1912.4,538.736 1934.01,531.054C1964.02,520.385 1982.11,492.975 1991.99,471.859C1999.01,456.872 2004.09,440.958 2009.01,425.568C2012.3,415.287 2015.7,404.655 2019.62,394.481C2028.2,372.228 2038.43,355.41 2050.8,343.258C2051.33,344.355 2051.86,345.454 2052.379,346.559ZM1971.66,675.037C1928.76,707.87 1876.88,727.082 1822.88,730.134C1834.41,725.243 1845.85,720.024 1857.05,714.913C1882.84,703.134 1909.52,690.955 1936.75,683.102C1947.26,680.069 1958.4,677.487 1971.66,675.037ZM2054.07,571.031C2053.2,572.974 2052.31,574.905 2051.389,576.825C2051.29,577.037 2051.19,577.251 2051.09,577.463C2050.149,579.418 2049.179,581.358 2048.19,583.288C2048.01,583.648 2047.82,584.009 2047.64,584.368C2046.66,586.261 2045.66,588.143 2044.63,590.012C2044.45,590.34 2044.27,590.666 2044.09,590.992C2043.02,592.928 2041.93,594.855 2040.82,596.764C2040.77,596.835 2040.73,596.905 2040.69,596.977C2039.59,598.856 2038.46,600.72 2037.31,602.573C2037.13,602.854 2036.96,603.137 2036.79,603.418C2035.65,605.232 2034.49,607.032 2033.32,608.819C2033.09,609.165 2032.86,609.51 2032.63,609.855C2031.45,611.641 2030.24,613.416 2029.01,615.175C2028.83,615.429 2028.65,615.681 2028.47,615.935C2027.23,617.696 2025.97,619.446 2024.69,621.178C2024.61,621.282 2024.54,621.387 2024.46,621.491C2023.14,623.259 2021.8,625.007 2020.45,626.743C2020.21,627.042 2019.98,627.343 2019.74,627.641C2018.42,629.317 2017.08,630.978 2015.72,632.624C2015.47,632.929 2015.21,633.234 2014.96,633.538C2013.56,635.214 2012.14,636.877 2010.7,638.52C2010.57,638.671 2010.43,638.82 2010.3,638.972C2008.89,640.577 2007.45,642.165 2006,643.737C2005.83,643.926 2005.65,644.118 2005.48,644.307C2004,645.898 2002.5,647.468 2000.98,649.024C2000.7,649.313 2000.42,649.601 2000.14,649.889C1998.63,651.421 1997.11,652.937 1995.56,654.434C1995.31,654.678 1995.06,654.919 1994.81,655.162C1993.18,656.722 1991.55,658.268 1989.89,659.789C1989.88,659.796 1989.87,659.804 1989.86,659.811C1988.2,661.332 1986.51,662.827 1984.81,664.307C1984.65,664.448 1984.49,664.589 1984.33,664.73C1964.25,667.978 1948.85,671.284 1934.54,675.415C1906.74,683.432 1879.79,695.736 1853.72,707.636C1836.38,715.556 1818.45,723.741 1800.61,730.483C1798.88,730.439 1797.14,730.385 1795.41,730.308C1795.32,730.304 1795.22,730.297 1795.12,730.293C1793.36,730.212 1791.59,730.114 1789.83,729.999C1789.24,729.96 1788.64,729.912 1788.04,729.869C1786.78,729.779 1785.52,729.684 1784.26,729.576C1783.56,729.517 1782.87,729.451 1782.17,729.386C1781,729.277 1779.83,729.161 1778.67,729.037C1777.95,728.961 1777.24,728.882 1776.53,728.801C1775.36,728.667 1774.19,728.523 1773.02,728.374C1772.34,728.286 1771.65,728.201 1770.97,728.108C1769.71,727.937 1768.45,727.753 1767.2,727.564C1766.62,727.477 1766.04,727.396 1765.46,727.306C1761.8,726.732 1758.16,726.083 1754.54,725.36C1753.97,725.248 1753.42,725.126 1752.85,725.011C1751.6,724.753 1750.35,724.49 1749.11,724.214C1748.43,724.066 1747.77,723.91 1747.1,723.757C1745.95,723.495 1744.81,723.226 1743.67,722.949C1742.98,722.781 1742.29,722.609 1741.6,722.435C1740.46,722.149 1739.33,721.855 1738.2,721.554C1737.53,721.376 1736.86,721.2 1736.19,721.017C1734.98,720.685 1733.77,720.34 1732.57,719.991C1732,719.826 1731.42,719.666 1730.85,719.496C1729.2,719.006 1727.55,718.499 1725.9,717.976C1725.79,717.94 1725.67,717.907 1725.56,717.87C1723.92,717.348 1722.29,716.803 1720.67,716.249C1739.85,710.921 1758.79,704.633 1777.2,698.517C1806.7,688.715 1837.2,678.58 1864.9,662.78C1872.63,658.371 1880.2,653.477 1887.52,648.744C1900.47,640.38 1913.85,631.732 1928.13,625.803C1939.24,621.186 1951.23,618.073 1962.83,615.063C1970.68,613.025 1978.8,610.919 1986.68,608.346C2011.17,600.357 2034.25,587.436 2054.27,570.588C2054.21,570.736 2054.139,570.883 2054.07,571.031ZM2061.26,553.348C2039.47,575.014 2012.85,591.398 1984.2,600.741C1976.55,603.237 1968.55,605.313 1960.82,607.319C1948.95,610.399 1936.69,613.583 1925.06,618.415C1910.11,624.622 1896.42,633.469 1883.18,642.025C1875.95,646.698 1868.47,651.531 1860.93,655.831C1833.92,671.238 1803.81,681.247 1774.68,690.925C1752.88,698.166 1730.34,705.639 1707.66,711.429C1692.28,705.296 1677.47,697.721 1663.46,688.851C1696.81,687.955 1727.24,680.013 1752.12,665.614C1767.97,656.44 1782.35,644.339 1796.26,632.637C1819.19,613.348 1840.85,595.128 1868.44,588.953C1886.49,584.908 1905.94,586.626 1924.76,588.286C1948.92,590.419 1973.91,592.625 1996.74,582.87C2032.29,567.692 2049.98,529.861 2063.76,495.593C2067.879,485.348 2072.399,474.159 2077.59,463.32C2077.29,494.263 2071.81,524.532 2061.26,553.348ZM2069.07,392.964C2069.26,393.698 2069.44,394.434 2069.62,395.169C2069.84,396.045 2070.06,396.919 2070.27,397.798C2070.45,398.536 2070.61,399.277 2070.78,400.017C2070.98,400.893 2071.179,401.767 2071.379,402.644C2071.54,403.397 2071.69,404.153 2071.85,404.908C2072.04,405.777 2072.22,406.645 2072.399,407.516C2072.55,408.275 2072.69,409.037 2072.83,409.797C2073,410.666 2073.169,411.534 2073.32,412.405C2073.46,413.169 2073.59,413.936 2073.72,414.702C2073.87,415.573 2074.02,416.443 2074.159,417.316C2074.29,418.083 2074.399,418.851 2074.52,419.618C2074.649,420.493 2074.79,421.366 2074.909,422.242C2075.02,423.013 2075.12,423.785 2075.22,424.557C2075.34,425.433 2075.46,426.309 2075.57,427.186C2075.659,427.958 2075.75,428.732 2075.84,429.506C2075.94,430.386 2076.04,431.265 2076.129,432.147C2076.21,432.922 2076.29,433.698 2076.36,434.474C2076.45,435.354 2076.53,436.235 2076.61,437.117C2076.679,437.897 2076.73,438.679 2076.79,439.461C2076.86,440.341 2076.929,441.222 2076.99,442.104C2077.05,442.886 2077.09,443.669 2077.129,444.451C2077.179,445.14 2077.22,445.83 2077.25,446.52C2068.86,461.481 2062.22,477.997 2056.34,492.607C2043.15,525.389 2026.34,561.534 1993.6,575.513C1972.61,584.479 1949.71,582.457 1925.46,580.317C1906.04,578.603 1885.95,576.831 1866.7,581.147C1837.2,587.749 1813.77,607.456 1791.11,626.515C1777.46,637.996 1763.35,649.867 1748.11,658.69C1721.53,674.077 1688.18,681.738 1651.55,680.875C1650.68,680.256 1649.82,679.623 1648.95,678.994C1647.99,678.294 1647.03,677.603 1646.08,676.89C1645.07,676.134 1644.07,675.356 1643.07,674.585C1642.13,673.857 1641.18,673.138 1640.25,672.398C1639.26,671.614 1638.28,670.808 1637.3,670.01C1636.38,669.256 1635.45,668.511 1634.54,667.745C1633.57,666.932 1632.62,666.099 1631.66,665.272C1630.75,664.494 1629.85,663.725 1628.95,662.935C1628,662.095 1627.07,661.233 1626.14,660.379C1625.26,659.579 1624.37,658.787 1623.5,657.975C1622.57,657.105 1621.66,656.215 1620.74,655.333C1619.89,654.512 1619.03,653.699 1618.18,652.867C1617.27,651.968 1616.38,651.049 1615.48,650.137C1614.66,649.298 1613.82,648.467 1613,647.617C1612.11,646.685 1611.23,645.732 1610.35,644.787C1609.56,643.935 1608.75,643.093 1607.97,642.232C1607.09,641.261 1606.22,640.27 1605.35,639.286C1604.6,638.428 1603.83,637.58 1603.08,636.712C1602.21,635.703 1601.36,634.675 1600.51,633.654C1599.79,632.79 1599.05,631.936 1598.34,631.063C1597.48,630.013 1596.65,628.944 1595.81,627.882C1595.13,627.018 1594.43,626.163 1593.76,625.292C1592.91,624.188 1592.08,623.064 1591.24,621.948C1590.61,621.098 1589.96,620.258 1589.33,619.401C1588.48,618.229 1587.65,617.037 1586.82,615.852C1586.24,615.032 1585.64,614.221 1585.08,613.395C1584.21,612.14 1583.37,610.865 1582.53,609.595C1582.02,608.821 1581.49,608.057 1580.98,607.278C1580.07,605.868 1579.18,604.44 1578.3,603.015C1577.89,602.36 1577.46,601.714 1577.06,601.056C1576.98,600.926 1576.91,600.794 1576.83,600.664C1592.19,600.924 1608.18,603.64 1623.7,606.279C1640.64,609.157 1657.97,612.102 1675.18,612.102C1682.91,612.102 1690.63,611.506 1698.27,610.042C1719.87,605.9 1739.25,595.1 1758,584.655C1774.44,575.499 1791.44,566.03 1809.55,561.377C1833.93,555.113 1860.03,557.586 1885.27,559.978C1891.91,560.607 1898.78,561.257 1905.52,561.741C1949.42,564.903 1979.82,557.802 2001.17,539.386C2018.06,524.819 2029.28,502.933 2036.49,470.509C2038.14,463.083 2039.55,455.49 2040.92,448.147C2044.1,431.021 2047.4,413.312 2053.909,397.107C2056.74,390.08 2060.23,383.264 2064.33,376.759C2064.53,377.381 2064.74,378.002 2064.94,378.626C2065.149,379.266 2065.34,379.911 2065.54,380.552C2065.83,381.494 2066.12,382.435 2066.409,383.38C2066.61,384.073 2066.81,384.77 2067.01,385.465C2067.27,386.363 2067.53,387.261 2067.78,388.162C2067.98,388.883 2068.169,389.607 2068.37,390.329C2068.6,391.207 2068.84,392.084 2069.07,392.964ZM1640.51,471.901C1650.85,471.901 1661.16,471.517 1671.43,470.747C1719.52,467.142 1764.52,455.194 1805.18,435.235C1844.54,415.923 1880.45,387.831 1909.05,353.995C1936.91,321.029 1957.39,283.038 1968.52,243.791C1970.28,245.102 1972.02,246.441 1973.76,247.796C1979.72,255.412 1985.3,263.388 1990.38,271.543C1980.89,281.892 1973.1,295.174 1968.4,309.366C1962.21,328.053 1960.06,347.779 1957.97,366.856C1956.74,378.135 1955.47,389.797 1953.37,401.022C1949.49,421.826 1938.41,458.869 1907.82,473.217C1889.92,481.617 1869.91,480.419 1848.72,479.151C1839.84,478.619 1830.64,478.068 1821.67,478.303C1786.37,479.221 1752.93,492.441 1720.59,505.226C1716.29,506.926 1712,508.623 1707.71,510.288C1671.44,524.361 1632.74,536.351 1595.48,528.836C1580.42,525.803 1565.82,519.542 1551.7,513.489C1548.56,512.144 1545.34,510.769 1542.12,509.425C1539.2,493.426 1537.7,477.022 1537.7,460.623C1537.7,460.2 1537.71,459.772 1537.71,459.347C1571.9,467.694 1606.34,471.901 1640.51,471.901ZM1553.89,368.348C1554.24,367.38 1554.61,366.42 1554.97,365.457C1555.46,364.181 1555.93,362.904 1556.43,361.636C1556.82,360.652 1557.23,359.675 1557.63,358.695C1558.13,357.458 1558.63,356.22 1559.16,354.99C1559.58,354.003 1560.02,353.024 1560.45,352.043C1560.98,350.83 1561.51,349.617 1562.06,348.413C1562.51,347.433 1562.98,346.461 1563.44,345.487C1563.84,344.63 1564.25,343.775 1564.66,342.922C1627.86,334.919 1678.76,323.786 1724.68,307.932C1793.9,284.038 1850.73,249.291 1893.63,204.641C1893.71,204.667 1893.79,204.693 1893.87,204.719C1893.95,204.748 1894.04,204.777 1894.12,204.806C1896.15,205.491 1898.18,206.203 1900.2,206.941C1900.54,207.064 1900.87,207.188 1901.21,207.313C1903.19,208.045 1905.17,208.802 1907.14,209.582C1907.32,209.657 1907.51,209.73 1907.7,209.805C1907.88,209.876 1908.06,209.95 1908.24,210.022C1910.24,210.828 1912.24,211.657 1914.23,212.511C1914.57,212.658 1914.91,212.809 1915.25,212.958C1916,213.283 1916.73,213.625 1917.48,213.957C1886.28,267.063 1830.51,314.101 1759.92,346.751C1691.79,378.258 1616.31,393.927 1546.76,391.062C1546.9,390.535 1547.03,390.005 1547.18,389.478C1547.29,389.053 1547.41,388.629 1547.53,388.205C1547.67,387.701 1547.82,387.199 1547.96,386.695C1548.41,385.114 1548.86,383.532 1549.34,381.958C1549.6,381.09 1549.89,380.228 1550.16,379.362C1550.6,377.979 1551.03,376.595 1551.49,375.219C1551.51,375.166 1551.53,375.113 1551.54,375.061C1551.85,374.15 1552.17,373.246 1552.49,372.339C1552.95,371.007 1553.4,369.673 1553.89,368.348ZM1928.58,219.204C1929.78,219.805 1930.98,220.406 1932.17,221.025C1932.86,221.386 1933.54,221.759 1934.23,222.126C1935.3,222.695 1936.38,223.263 1937.44,223.847C1938.17,224.249 1938.89,224.663 1939.62,225.071C1940.63,225.639 1941.64,226.205 1942.65,226.786C1943.4,227.219 1944.14,227.663 1944.89,228.104C1945.86,228.678 1946.83,229.252 1947.79,229.838C1948.55,230.299 1949.3,230.768 1950.05,231.236C1950.99,231.821 1951.93,232.407 1952.86,233.003C1953.62,233.487 1954.38,233.979 1955.13,234.472C1956.04,235.068 1956.96,235.668 1957.86,236.275C1958.62,236.783 1959.37,237.296 1960.12,237.811C1960.62,238.149 1961.11,238.493 1961.6,238.834C1950.97,277.973 1930.73,315.952 1902.94,348.831C1875.05,381.83 1840.03,409.224 1801.66,428.053C1761.92,447.561 1717.9,459.241 1670.84,462.769C1626.88,466.065 1582.18,462.159 1537.89,451.162C1537.92,450.4 1537.94,449.638 1537.98,448.876C1538.02,447.785 1538.07,446.693 1538.13,445.603C1538.2,444.282 1538.29,442.962 1538.38,441.643C1538.46,440.556 1538.53,439.469 1538.62,438.384C1538.73,437.057 1538.85,435.733 1538.98,434.409C1539.09,433.335 1539.19,432.261 1539.3,431.189C1539.45,429.85 1539.61,428.514 1539.78,427.178C1539.91,426.128 1540.03,425.076 1540.17,424.027C1540.36,422.658 1540.57,421.294 1540.77,419.928C1540.92,418.919 1541.07,417.908 1541.23,416.9C1541.46,415.471 1541.72,414.048 1541.98,412.624C1542.14,411.687 1542.3,410.748 1542.48,409.814C1542.78,408.231 1543.11,406.654 1543.44,405.078C1543.6,404.311 1543.74,403.54 1543.91,402.774C1544.19,401.503 1544.5,400.241 1544.79,398.976C1550.84,399.25 1556.92,399.395 1563.05,399.395C1629.12,399.395 1699.4,383.553 1763.27,354.013C1835.63,320.547 1892.81,272.103 1924.76,217.324C1925.45,217.659 1926.15,217.983 1926.84,218.324C1927.42,218.611 1928,218.912 1928.58,219.204ZM1570.54,331.457C1571.26,330.142 1571.99,328.839 1572.72,327.545C1573.02,327.016 1573.33,326.489 1573.63,325.962C1573.99,325.347 1574.35,324.736 1574.7,324.127C1673.42,300.988 1767.69,255.892 1847.57,193.598C1848.73,193.769 1849.88,193.941 1851.04,194.128C1851.29,194.169 1851.55,194.206 1851.8,194.248C1853.61,194.544 1855.4,194.86 1857.2,195.193C1857.48,195.244 1857.75,195.3 1858.03,195.352C1859.55,195.639 1861.07,195.939 1862.59,196.253C1862.97,196.333 1863.36,196.415 1863.75,196.496C1865.26,196.817 1866.78,197.15 1868.29,197.497C1868.55,197.557 1868.82,197.615 1869.08,197.677C1872.68,198.514 1876.26,199.426 1879.82,200.41C1880.13,200.495 1880.43,200.584 1880.74,200.67C1882.19,201.077 1883.64,201.496 1885.08,201.927C1885.09,201.929 1885.09,201.931 1885.1,201.933C1843.42,244.3 1788.61,277.403 1722.07,300.37C1677.99,315.588 1629.19,326.413 1569.03,334.291C1569.49,333.428 1569.94,332.56 1570.41,331.705C1570.45,331.622 1570.5,331.54 1570.54,331.457ZM1534.63,513.022C1534.64,513.062 1534.65,513.103 1534.66,513.143C1535,514.943 1535.37,516.739 1535.74,518.53C1535.85,519.007 1535.96,519.482 1536.06,519.959C1536.35,521.305 1536.65,522.651 1536.96,523.991C1537.1,524.613 1537.26,525.231 1537.41,525.851C1537.69,527.036 1537.98,528.222 1538.28,529.404C1538.46,530.111 1538.65,530.816 1538.84,531.522C1539.12,532.605 1539.4,533.688 1539.7,534.767C1539.91,535.538 1540.14,536.307 1540.36,537.076C1540.64,538.08 1540.93,539.083 1541.23,540.083C1541.47,540.905 1541.73,541.725 1541.98,542.545C1542.27,543.482 1542.56,544.42 1542.85,545.354C1543.13,546.215 1543.41,547.074 1543.7,547.933C1543.99,548.818 1544.28,549.703 1544.59,550.585C1544.89,551.478 1545.2,552.368 1545.52,553.257C1545.81,554.096 1546.11,554.934 1546.42,555.77C1546.75,556.688 1547.09,557.605 1547.43,558.52C1547.74,559.32 1548.04,560.119 1548.35,560.916C1548.71,561.854 1549.08,562.79 1549.45,563.723C1549.76,564.493 1550.07,565.261 1550.39,566.028C1550.78,566.976 1551.17,567.923 1551.57,568.866C1551.88,569.616 1552.21,570.362 1552.53,571.109C1552.95,572.06 1553.36,573.011 1553.78,573.958C1554.11,574.695 1554.45,575.428 1554.79,576.163C1555.22,577.108 1555.65,578.055 1556.1,578.996C1556.44,579.734 1556.8,580.467 1557.16,581.202C1557.61,582.131 1558.05,583.061 1558.51,583.985C1558.89,584.747 1559.28,585.503 1559.66,586.262C1560.12,587.151 1560.56,588.042 1561.02,588.926C1561.48,589.807 1561.96,590.68 1562.43,591.556C1562.83,592.309 1563.22,593.066 1563.64,593.816C1563.64,593.83 1563.65,593.845 1563.66,593.86C1564.47,595.334 1565.29,596.791 1566.12,598.25C1566.21,598.403 1566.29,598.558 1566.38,598.711L1566.38,598.714C1570.16,605.304 1574.22,611.745 1578.54,618.016C1588.63,632.649 1600.15,646.351 1612.84,658.842C1623.72,669.548 1635.47,679.364 1647.91,688.113L1647.91,688.115C1665.93,700.798 1685.45,711.311 1705.91,719.359C1711.6,721.601 1717.35,723.649 1723.16,725.502C1748.31,733.532 1774.48,737.899 1801.18,738.506C1801.19,738.506 1801.19,738.506 1801.19,738.507C1803.5,738.556 1805.61,738.581 1807.66,738.581C1874.08,738.581 1938.38,714.769 1988.7,671.532C1996.55,664.795 2004,657.636 2011.02,650.099C2036.11,623.182 2055.73,591.452 2068.47,556.953C2079.85,526.161 2085.62,493.751 2085.62,460.623C2085.62,456.115 2085.52,451.623 2085.31,447.276C2084,419.605 2078.61,392.423 2069.27,366.483C2068.79,365.137 2068.29,363.794 2067.78,362.452C2067.47,361.607 2067.129,360.764 2066.81,359.92C2066.69,359.63 2066.58,359.339 2066.47,359.049C2066,357.863 2065.53,356.68 2065.04,355.5C2064.659,354.562 2064.27,353.627 2063.87,352.692C2063.77,352.44 2063.659,352.188 2063.55,351.937C2061.09,346.149 2058.44,340.436 2055.59,334.85L2055.59,334.844C2043.54,311.116 2028.18,289.317 2009.87,269.926C2009.57,269.602 2009.26,269.277 2008.95,268.955C2007.35,267.269 2005.73,265.596 2004.08,263.948C2004.06,263.93 2004.04,263.911 2004.02,263.893L2004.02,263.89C1993.08,252.962 1981.13,242.868 1968.5,233.888C1954.78,224.136 1940.09,215.591 1924.84,208.492C1923.57,207.903 1922.31,207.324 1921.03,206.754C1920.89,206.69 1920.74,206.628 1920.6,206.563C1920.08,206.334 1919.57,206.112 1919.05,205.886C1918.14,205.489 1917.24,205.095 1916.33,204.708C1915.71,204.446 1915.09,204.188 1914.48,203.931C1913.65,203.588 1912.83,203.25 1912.01,202.916C1911.36,202.654 1910.71,202.392 1910.07,202.135C1909.22,201.798 1908.37,201.47 1907.52,201.142C1906.91,200.909 1906.31,200.672 1905.7,200.443C1904.32,199.923 1902.94,199.415 1901.56,198.918C1900.98,198.708 1900.39,198.507 1899.8,198.301C1898.93,197.996 1898.07,197.692 1897.2,197.396C1896.46,197.146 1895.72,196.902 1894.98,196.657C1894.56,196.52 1894.15,196.376 1893.73,196.24L1893.73,196.239L1893.72,196.239C1893.52,196.173 1893.32,196.113 1893.11,196.047C1891.72,195.597 1890.32,195.159 1888.92,194.731C1888.49,194.602 1888.07,194.47 1887.65,194.343C1885.88,193.812 1884.11,193.296 1882.33,192.801C1882.31,192.795 1882.28,192.788 1882.26,192.782C1880.36,192.252 1878.44,191.744 1876.53,191.255C1876.42,191.228 1876.31,191.203 1876.21,191.177C1874.49,190.74 1872.76,190.322 1871.03,189.919C1870.62,189.822 1870.2,189.73 1869.78,189.634C1868.36,189.309 1866.93,188.993 1865.5,188.691C1864.98,188.58 1864.46,188.473 1863.94,188.365C1862.6,188.09 1861.25,187.825 1859.91,187.569C1859.35,187.463 1858.79,187.355 1858.23,187.252C1856.87,187.003 1855.52,186.767 1854.15,186.538C1853.64,186.451 1853.12,186.358 1852.6,186.273C1850.8,185.981 1849,185.704 1847.19,185.447C1847.14,185.439 1847.09,185.43 1847.03,185.422C1834.1,183.586 1820.85,182.656 1807.66,182.656C1758.62,182.656 1710.41,195.603 1668.24,220.097C1627.32,243.864 1592.9,277.917 1568.68,318.574C1568.43,318.986 1568.2,319.411 1567.95,319.826C1567.32,320.898 1566.69,321.969 1566.07,323.048C1565.81,323.503 1565.56,323.967 1565.3,324.425C1564.68,325.538 1564.05,326.651 1563.44,327.771C1563.34,327.96 1563.24,328.153 1563.13,328.343C1562.37,329.755 1561.61,331.172 1560.87,332.596C1560.85,332.634 1560.84,332.673 1560.82,332.711C1560,334.279 1559.2,335.855 1558.42,337.438C1558.42,337.442 1558.42,337.447 1558.41,337.451C1558.41,337.458 1558.41,337.466 1558.4,337.474C1557.34,339.615 1556.31,341.769 1555.31,343.935C1555.23,344.103 1555.15,344.271 1555.08,344.439C1553.07,348.798 1551.18,353.208 1549.4,357.663C1549.3,357.905 1549.2,358.147 1549.11,358.389C1547.39,362.739 1545.78,367.133 1544.28,371.566C1544.15,371.966 1544.01,372.365 1543.88,372.766C1543.15,374.941 1542.45,377.122 1541.78,379.316C1541.74,379.432 1541.71,379.549 1541.68,379.666C1541.06,381.677 1540.48,383.698 1539.92,385.725C1539.76,386.291 1539.6,386.857 1539.45,387.424C1538.87,389.555 1538.3,391.692 1537.77,393.839L1537.77,393.866C1532.93,413.494 1530.24,433.78 1529.78,454.147C1529.73,456.293 1529.7,458.472 1529.7,460.623C1529.7,478.24 1531.36,495.869 1534.63,513.02L1534.63,513.022Z" style="fill:rgb(53,242,164);fill-opacity:0.1;fill-rule:nonzero;"/>
    </g>
</svg>
