<?xml version="1.0" encoding="UTF-8" standalone="no"?>
<!DOCTYPE svg PUBLIC "-//W3C//DTD SVG 1.1//EN" "http://www.w3.org/Graphics/SVG/1.1/DTD/svg11.dtd">
<svg width="100%" height="100%" viewBox="0 0 1024 1024" version="1.1" xmlns="http://www.w3.org/2000/svg" xmlns:xlink="http://www.w3.org/1999/xlink" xml:space="preserve" xmlns:serif="http://www.serif.com/" style="fill-rule:evenodd;clip-rule:evenodd;stroke-linejoin:round;stroke-miterlimit:2;">
    <g transform="matrix(1.142857,0,0,1.142857,-73.142857,-73.142857)">
        <path d="M385.024,706.368L385.024,406.72L285.376,406.72L285.376,706.4L384.992,706.4L385.024,706.368ZM335.2,365.76C369.92,365.76 391.584,342.72 391.584,313.952C390.944,284.576 369.92,262.208 335.904,262.208C301.76,262.208 279.52,284.608 279.52,313.952C279.52,342.752 301.152,365.792 334.592,365.792L335.2,365.76ZM744.224,706.368L744.224,534.56C744.224,442.496 695.072,399.648 629.568,399.648C576.64,399.648 552.96,428.768 539.776,449.152L539.776,406.656L440.16,406.656C441.472,434.816 440.16,706.368 440.16,706.368L539.776,706.368L539.776,539.008C539.776,530.048 540.416,521.088 543.04,514.752C550.208,496.832 566.624,478.304 594.112,478.304C630.176,478.304 644.672,505.76 644.672,546.048L644.672,706.4L744.256,706.4L744.224,706.368ZM512,64C759.424,64 960,264.544 960,512C960,759.424 759.424,960 512,960C264.544,960 64,759.424 64,512C64,264.544 264.544,64 512,64Z" style="fill:white;fill-rule:nonzero;"/>
    </g>
</svg>
